# xmcd
#
# Track frame offsets: 
#        150
#        75063
#        101527
#        134008
#        170648
#        214753
#        257339
#
# Disc length: 4364 seconds
#
# Revision: 0
# Processed by: cddbd v1.5.2PL0 Copyright (c) Steve Scherf et al.
# Submitted via: ExactAudioCopy v0.99pb5
#
DISCID=53110a07
DTITLE=Gov't Mule - Live at Roseland Ballroom
DYEAR=1996
DGENRE=Southern Rock
TTITLE0=Trane
TTITLE1=Temporary Saint
TTITLE2=Painted Silver Light
TTITLE3=Don't Step on the Grass Sam
TTITLE4=Kind of Bird
TTITLE5=Mule
TTITLE6=Voodoo Chile
EXTD=
EXTT0=
EXTT1=
EXTT2=
EXTT3=
EXTT4=
EXTT5=
EXTT6=
PLAYORDER=
